<?xml version="1.0" encoding="UTF-8" standalone="no"?>
<!DOCTYPE svg PUBLIC "-//W3C//DTD SVG 1.1//EN"
 "http://www.w3.org/Graphics/SVG/1.1/DTD/svg11.dtd">
<!-- Generated by graphviz version 2.40.1 (20161225.0304)
 -->
<!-- Title: dependencies Pages: 1 -->
<svg width="3721pt" height="360pt"
 viewBox="0.00 0.00 3721.00 360.00" xmlns="http://www.w3.org/2000/svg" xmlns:xlink="http://www.w3.org/1999/xlink">
<g id="graph0" class="graph" transform="scale(1 1) rotate(0) translate(4 356)">
<title>dependencies</title>
<polygon fill="#ffffff" stroke="transparent" points="-4,4 -4,-356 3717,-356 3717,4 -4,4"/>
<text text-anchor="start" x="1835.5091" y="-42.4" font-family="sans-serif" font-weight="bold" font-size="14.00" fill="#000000">Legend</text>
<polygon fill="#ffffb3" stroke="transparent" points="1622.5,-10 1622.5,-30 1642.5,-30 1642.5,-10 1622.5,-10"/>
<text text-anchor="start" x="1646.129" y="-15.4" font-family="sans-serif" font-size="14.00" fill="#000000"> &#160;Declarations</text>
<polygon fill="#8dd3c7" stroke="transparent" points="1735.5,-10 1735.5,-30 1755.5,-30 1755.5,-10 1735.5,-10"/>
<text text-anchor="start" x="1759.2251" y="-15.4" font-family="sans-serif" font-size="14.00" fill="#000000"> &#160;Module</text>
<polygon fill="#80b1d3" stroke="transparent" points="1821.5,-10 1821.5,-30 1841.5,-30 1841.5,-10 1821.5,-10"/>
<text text-anchor="start" x="1845.2812" y="-15.4" font-family="sans-serif" font-size="14.00" fill="#000000"> &#160;Bootstrap</text>
<polygon fill="#fdb462" stroke="transparent" points="1918.5,-10 1918.5,-30 1938.5,-30 1938.5,-10 1918.5,-10"/>
<text text-anchor="start" x="1942.1732" y="-15.4" font-family="sans-serif" font-size="14.00" fill="#000000"> &#160;Providers</text>
<polygon fill="#fb8072" stroke="transparent" points="2014.5,-10 2014.5,-30 2034.5,-30 2034.5,-10 2014.5,-10"/>
<text text-anchor="start" x="2038.2258" y="-15.4" font-family="sans-serif" font-size="14.00" fill="#000000"> &#160;Exports</text>
<g id="clust1" class="cluster">
<title>cluster_AppModule</title>
<polygon fill="none" stroke="#000000" stroke-dasharray="1,5" points="390,-146 390,-344 883,-344 883,-146 390,-146"/>
</g>
<g id="clust2" class="cluster">
<title>cluster_AppModule_declarations</title>
<polygon fill="none" stroke="#000000" points="753,-154 753,-206 875,-206 875,-154 753,-154"/>
</g>
<g id="clust4" class="cluster">
<title>cluster_AppModule_imports</title>
<polygon fill="none" stroke="#000000" points="398,-154 398,-206 745,-206 745,-154 398,-154"/>
</g>
<g id="clust6" class="cluster">
<title>cluster_AppModule_bootstrap</title>
<polygon fill="none" stroke="#000000" points="546,-284 546,-336 670,-336 670,-284 546,-284"/>
</g>
<g id="clust14" class="cluster">
<title>cluster_ClientsModule</title>
<polygon fill="none" stroke="#000000" stroke-dasharray="1,5" points="1008,-70 1008,-206 1792,-206 1792,-70 1008,-70"/>
</g>
<g id="clust15" class="cluster">
<title>cluster_ClientsModule_declarations</title>
<polygon fill="none" stroke="#000000" points="1016,-78 1016,-130 1500,-130 1500,-78 1016,-78"/>
</g>
<g id="clust19" class="cluster">
<title>cluster_ClientsModule_imports</title>
<polygon fill="none" stroke="#000000" points="1508,-78 1508,-130 1784,-130 1784,-78 1508,-78"/>
</g>
<g id="clust29" class="cluster">
<title>cluster_LoginModule</title>
<polygon fill="none" stroke="#000000" stroke-dasharray="1,5" points="664,-70 664,-138 1000,-138 1000,-70 664,-70"/>
</g>
<g id="clust30" class="cluster">
<title>cluster_LoginModule_declarations</title>
<polygon fill="none" stroke="#000000" points="834,-78 834,-130 992,-130 992,-78 834,-78"/>
</g>
<g id="clust32" class="cluster">
<title>cluster_LoginModule_imports</title>
<polygon fill="none" stroke="#000000" points="672,-78 672,-130 826,-130 826,-78 672,-78"/>
</g>
<g id="clust42" class="cluster">
<title>cluster_PageNotFoundModule</title>
<polygon fill="none" stroke="#000000" stroke-dasharray="1,5" points="3295,-70 3295,-206 3705,-206 3705,-70 3295,-70"/>
</g>
<g id="clust43" class="cluster">
<title>cluster_PageNotFoundModule_declarations</title>
<polygon fill="none" stroke="#000000" points="3515,-78 3515,-130 3697,-130 3697,-78 3515,-78"/>
</g>
<g id="clust45" class="cluster">
<title>cluster_PageNotFoundModule_imports</title>
<polygon fill="none" stroke="#000000" points="3303,-78 3303,-130 3507,-130 3507,-78 3303,-78"/>
</g>
<g id="clust55" class="cluster">
<title>cluster_PrestationsModule</title>
<polygon fill="none" stroke="#000000" stroke-dasharray="1,5" points="2532,-70 2532,-206 3287,-206 3287,-70 2532,-70"/>
</g>
<g id="clust56" class="cluster">
<title>cluster_PrestationsModule_declarations</title>
<polygon fill="none" stroke="#000000" points="2730,-78 2730,-130 3279,-130 3279,-78 2730,-78"/>
</g>
<g id="clust60" class="cluster">
<title>cluster_PrestationsModule_imports</title>
<polygon fill="none" stroke="#000000" points="2540,-78 2540,-130 2722,-130 2722,-78 2540,-78"/>
</g>
<g id="clust70" class="cluster">
<title>cluster_SharedModule</title>
<polygon fill="none" stroke="#000000" stroke-dasharray="1,5" points="1800,-146 1800,-214 2524,-214 2524,-146 1800,-146"/>
</g>
<g id="clust71" class="cluster">
<title>cluster_SharedModule_declarations</title>
<polygon fill="none" stroke="#000000" points="2172,-154 2172,-206 2516,-206 2516,-154 2172,-154"/>
</g>
<g id="clust76" class="cluster">
<title>cluster_SharedModule_exports</title>
<polygon fill="none" stroke="#000000" points="1808,-154 1808,-206 2164,-206 2164,-154 1808,-154"/>
</g>
<g id="clust79" class="cluster">
<title>cluster_UiModule</title>
<polygon fill="none" stroke="#000000" stroke-dasharray="1,5" points="8,-70 8,-138 656,-138 656,-70 8,-70"/>
</g>
<g id="clust80" class="cluster">
<title>cluster_UiModule_declarations</title>
<polygon fill="none" stroke="#000000" points="138,-78 138,-130 648,-130 648,-78 138,-78"/>
</g>
<g id="clust86" class="cluster">
<title>cluster_UiModule_exports</title>
<polygon fill="none" stroke="#000000" points="16,-78 16,-130 130,-130 130,-78 16,-78"/>
</g>
<!-- AppComponent -->
<g id="node1" class="node">
<title>AppComponent</title>
<polygon fill="#ffffb3" stroke="#000000" points="866.9399,-198 761.0601,-198 761.0601,-162 866.9399,-162 866.9399,-198"/>
<text text-anchor="middle" x="814" y="-175.8" font-family="Times,serif" font-size="14.00" fill="#000000">AppComponent</text>
</g>
<!-- AppModule -->
<g id="node2" class="node">
<title>AppModule</title>
<polygon fill="#8dd3c7" stroke="#000000" points="649.6571,-263 646.6571,-267 625.6571,-267 622.6571,-263 566.3429,-263 566.3429,-227 649.6571,-227 649.6571,-263"/>
<text text-anchor="middle" x="608" y="-240.8" font-family="Times,serif" font-size="14.00" fill="#000000">AppModule</text>
</g>
<!-- AppComponent&#45;&gt;AppModule -->
<g id="edge1" class="edge">
<title>AppComponent&#45;&gt;AppModule</title>
<path fill="none" stroke="#000000" d="M814,-198.1061C814,-217.3391 814,-245 814,-245 814,-245 659.6872,-245 659.6872,-245"/>
<polygon fill="#000000" stroke="#000000" points="659.6872,-241.5001 649.6872,-245 659.6871,-248.5001 659.6872,-241.5001"/>
</g>
<!-- AppComponent  -->
<g id="node6" class="node">
<title>AppComponent </title>
<polygon fill="#80b1d3" stroke="#000000" points="662.439,-328 553.561,-328 553.561,-292 662.439,-292 662.439,-328"/>
<text text-anchor="middle" x="608" y="-305.8" font-family="Times,serif" font-size="14.00" fill="#000000">AppComponent </text>
</g>
<!-- AppModule&#45;&gt;AppComponent  -->
<g id="edge5" class="edge">
<title>AppModule&#45;&gt;AppComponent </title>
<path fill="none" stroke="#000000" stroke-dasharray="1,5" d="M608,-263.1061C608,-263.1061 608,-281.991 608,-281.991"/>
<polygon fill="#000000" stroke="#000000" points="604.5001,-281.9909 608,-291.991 611.5001,-281.991 604.5001,-281.9909"/>
</g>
<!-- AppRoutingModule -->
<g id="node3" class="node">
<title>AppRoutingModule</title>
<polygon fill="#8dd3c7" stroke="#000000" points="737.2744,-198 734.2744,-202 713.2744,-202 710.2744,-198 608.7256,-198 608.7256,-162 737.2744,-162 737.2744,-198"/>
<text text-anchor="middle" x="673" y="-175.8" font-family="Times,serif" font-size="14.00" fill="#000000">AppRoutingModule</text>
</g>
<!-- AppRoutingModule&#45;&gt;AppModule -->
<g id="edge2" class="edge">
<title>AppRoutingModule&#45;&gt;AppModule</title>
<path fill="none" stroke="#000000" d="M629.2206,-198.1061C629.2206,-198.1061 629.2206,-216.991 629.2206,-216.991"/>
<polygon fill="#000000" stroke="#000000" points="625.7206,-216.9909 629.2206,-226.991 632.7206,-216.991 625.7206,-216.9909"/>
</g>
<!-- LoginModule -->
<g id="node4" class="node">
<title>LoginModule</title>
<polygon fill="#8dd3c7" stroke="#000000" points="590.493,-198 587.493,-202 566.493,-202 563.493,-198 497.507,-198 497.507,-162 590.493,-162 590.493,-198"/>
<text text-anchor="middle" x="544" y="-175.8" font-family="Times,serif" font-size="14.00" fill="#000000">LoginModule</text>
</g>
<!-- LoginModule&#45;&gt;AppModule -->
<g id="edge3" class="edge">
<title>LoginModule&#45;&gt;AppModule</title>
<path fill="none" stroke="#000000" d="M578.3342,-198.1061C578.3342,-198.1061 578.3342,-216.991 578.3342,-216.991"/>
<polygon fill="#000000" stroke="#000000" points="574.8342,-216.9909 578.3342,-226.991 581.8342,-216.991 574.8342,-216.9909"/>
</g>
<!-- UiModule -->
<g id="node5" class="node">
<title>UiModule</title>
<polygon fill="#8dd3c7" stroke="#000000" points="479.5484,-198 476.5484,-202 455.5484,-202 452.5484,-198 406.4516,-198 406.4516,-162 479.5484,-162 479.5484,-198"/>
<text text-anchor="middle" x="443" y="-175.8" font-family="Times,serif" font-size="14.00" fill="#000000">UiModule</text>
</g>
<!-- UiModule&#45;&gt;AppModule -->
<g id="edge4" class="edge">
<title>UiModule&#45;&gt;AppModule</title>
<path fill="none" stroke="#000000" d="M443,-198.1061C443,-217.3391 443,-245 443,-245 443,-245 555.9366,-245 555.9366,-245"/>
<polygon fill="#000000" stroke="#000000" points="555.9366,-248.5001 565.9366,-245 555.9366,-241.5001 555.9366,-248.5001"/>
</g>
<!-- UiComponent  -->
<g id="node33" class="node">
<title>UiComponent </title>
<polygon fill="#fb8072" stroke="#000000" points="122.3297,-122 23.6703,-122 23.6703,-86 122.3297,-86 122.3297,-122"/>
<text text-anchor="middle" x="73" y="-99.8" font-family="Times,serif" font-size="14.00" fill="#000000">UiComponent </text>
</g>
<!-- UiModule&#45;&gt;UiComponent  -->
<g id="edge30" class="edge">
<title>UiModule&#45;&gt;UiComponent </title>
<path fill="none" stroke="#000000" stroke-dasharray="5,2" d="M406.1703,-189C312.5831,-189 73,-189 73,-189 73,-189 73,-132.0263 73,-132.0263"/>
<polygon fill="#000000" stroke="#000000" points="76.5001,-132.0263 73,-122.0263 69.5001,-132.0263 76.5001,-132.0263"/>
</g>
<!-- ItemClientComponent -->
<g id="node7" class="node">
<title>ItemClientComponent</title>
<polygon fill="#ffffb3" stroke="#000000" points="1491.712,-122 1350.288,-122 1350.288,-86 1491.712,-86 1491.712,-122"/>
<text text-anchor="middle" x="1421" y="-99.8" font-family="Times,serif" font-size="14.00" fill="#000000">ItemClientComponent</text>
</g>
<!-- ClientsModule -->
<g id="node10" class="node">
<title>ClientsModule</title>
<polygon fill="#8dd3c7" stroke="#000000" points="1470.7176,-198 1467.7176,-202 1446.7176,-202 1443.7176,-198 1371.2824,-198 1371.2824,-162 1470.7176,-162 1470.7176,-198"/>
<text text-anchor="middle" x="1421" y="-175.8" font-family="Times,serif" font-size="14.00" fill="#000000">ClientsModule</text>
</g>
<!-- ItemClientComponent&#45;&gt;ClientsModule -->
<g id="edge6" class="edge">
<title>ItemClientComponent&#45;&gt;ClientsModule</title>
<path fill="none" stroke="#000000" d="M1421,-122.0109C1421,-122.0109 1421,-151.855 1421,-151.855"/>
<polygon fill="#000000" stroke="#000000" points="1417.5001,-151.8549 1421,-161.855 1424.5001,-151.855 1417.5001,-151.8549"/>
</g>
<!-- ListClientsComponent -->
<g id="node8" class="node">
<title>ListClientsComponent</title>
<polygon fill="#ffffb3" stroke="#000000" points="1332.2786,-122 1189.7214,-122 1189.7214,-86 1332.2786,-86 1332.2786,-122"/>
<text text-anchor="middle" x="1261" y="-99.8" font-family="Times,serif" font-size="14.00" fill="#000000">ListClientsComponent</text>
</g>
<!-- ListClientsComponent&#45;&gt;ClientsModule -->
<g id="edge7" class="edge">
<title>ListClientsComponent&#45;&gt;ClientsModule</title>
<path fill="none" stroke="#000000" d="M1261,-122.0267C1261,-142.7672 1261,-174 1261,-174 1261,-174 1361.2521,-174 1361.2521,-174"/>
<polygon fill="#000000" stroke="#000000" points="1361.2521,-177.5001 1371.2521,-174 1361.252,-170.5001 1361.2521,-177.5001"/>
</g>
<!-- PageClientsComponent -->
<g id="node9" class="node">
<title>PageClientsComponent</title>
<polygon fill="#ffffb3" stroke="#000000" points="1172.212,-122 1023.788,-122 1023.788,-86 1172.212,-86 1172.212,-122"/>
<text text-anchor="middle" x="1098" y="-99.8" font-family="Times,serif" font-size="14.00" fill="#000000">PageClientsComponent</text>
</g>
<!-- PageClientsComponent&#45;&gt;ClientsModule -->
<g id="edge8" class="edge">
<title>PageClientsComponent&#45;&gt;ClientsModule</title>
<path fill="none" stroke="#000000" d="M1098,-122.1985C1098,-146.3563 1098,-186 1098,-186 1098,-186 1361.2391,-186 1361.2391,-186"/>
<polygon fill="#000000" stroke="#000000" points="1361.2391,-189.5001 1371.2391,-186 1361.2391,-182.5001 1361.2391,-189.5001"/>
</g>
<!-- ClientsRoutingModule -->
<g id="node11" class="node">
<title>ClientsRoutingModule</title>
<polygon fill="#8dd3c7" stroke="#000000" points="1660.3356,-122 1657.3356,-126 1636.3356,-126 1633.3356,-122 1515.6644,-122 1515.6644,-86 1660.3356,-86 1660.3356,-122"/>
<text text-anchor="middle" x="1588" y="-99.8" font-family="Times,serif" font-size="14.00" fill="#000000">ClientsRoutingModule</text>
</g>
<!-- ClientsRoutingModule&#45;&gt;ClientsModule -->
<g id="edge9" class="edge">
<title>ClientsRoutingModule&#45;&gt;ClientsModule</title>
<path fill="none" stroke="#000000" d="M1588,-122.0267C1588,-142.7672 1588,-174 1588,-174 1588,-174 1480.6534,-174 1480.6534,-174"/>
<polygon fill="#000000" stroke="#000000" points="1480.6534,-170.5001 1470.6534,-174 1480.6533,-177.5001 1480.6534,-170.5001"/>
</g>
<!-- SharedModule -->
<g id="node12" class="node">
<title>SharedModule</title>
<polygon fill="#8dd3c7" stroke="#000000" points="1776.4231,-122 1773.4231,-126 1752.4231,-126 1749.4231,-122 1677.5769,-122 1677.5769,-86 1776.4231,-86 1776.4231,-122"/>
<text text-anchor="middle" x="1727" y="-99.8" font-family="Times,serif" font-size="14.00" fill="#000000">SharedModule</text>
</g>
<!-- SharedModule&#45;&gt;ClientsModule -->
<g id="edge10" class="edge">
<title>SharedModule&#45;&gt;ClientsModule</title>
<path fill="none" stroke="#000000" d="M1727,-122.1985C1727,-146.3563 1727,-186 1727,-186 1727,-186 1480.8452,-186 1480.8452,-186"/>
<polygon fill="#000000" stroke="#000000" points="1480.8453,-182.5001 1470.8452,-186 1480.8452,-189.5001 1480.8453,-182.5001"/>
</g>
<!-- PrestationsModule -->
<g id="node21" class="node">
<title>PrestationsModule</title>
<polygon fill="#8dd3c7" stroke="#000000" points="2883.4832,-198 2880.4832,-202 2859.4832,-202 2856.4832,-198 2762.5168,-198 2762.5168,-162 2883.4832,-162 2883.4832,-198"/>
<text text-anchor="middle" x="2823" y="-175.8" font-family="Times,serif" font-size="14.00" fill="#000000">PrestationsModule</text>
</g>
<!-- SharedModule&#45;&gt;PrestationsModule -->
<g id="edge19" class="edge">
<title>SharedModule&#45;&gt;PrestationsModule</title>
<path fill="none" stroke="#000000" d="M1776.5013,-91C1951.1359,-91 2527.9937,-91 2527.9937,-91 2527.9937,-91 2527.9937,-186 2527.9937,-186 2527.9937,-186 2752.2322,-186 2752.2322,-186"/>
<polygon fill="#000000" stroke="#000000" points="2752.2322,-189.5001 2762.2322,-186 2752.2322,-182.5001 2752.2322,-189.5001"/>
</g>
<!-- StateDirective  -->
<g id="node26" class="node">
<title>StateDirective </title>
<polygon fill="#fb8072" stroke="#000000" points="2155.5767,-198 2056.4233,-198 2056.4233,-162 2155.5767,-162 2155.5767,-198"/>
<text text-anchor="middle" x="2106" y="-175.8" font-family="Times,serif" font-size="14.00" fill="#000000">StateDirective </text>
</g>
<!-- SharedModule&#45;&gt;StateDirective  -->
<g id="edge23" class="edge">
<title>SharedModule&#45;&gt;StateDirective </title>
<path fill="none" stroke="#000000" stroke-dasharray="5,2" d="M1776.5476,-109C1879.2801,-109 2106,-109 2106,-109 2106,-109 2106,-151.7157 2106,-151.7157"/>
<polygon fill="#000000" stroke="#000000" points="2102.5001,-151.7157 2106,-161.7157 2109.5001,-151.7158 2102.5001,-151.7157"/>
</g>
<!-- TableauComponent  -->
<g id="node27" class="node">
<title>TableauComponent </title>
<polygon fill="#fb8072" stroke="#000000" points="2037.9194,-198 1908.0806,-198 1908.0806,-162 2037.9194,-162 2037.9194,-198"/>
<text text-anchor="middle" x="1973" y="-175.8" font-family="Times,serif" font-size="14.00" fill="#000000">TableauComponent </text>
</g>
<!-- SharedModule&#45;&gt;TableauComponent  -->
<g id="edge24" class="edge">
<title>SharedModule&#45;&gt;TableauComponent </title>
<path fill="none" stroke="#000000" stroke-dasharray="5,2" d="M1776.4859,-113C1848.3219,-113 1973,-113 1973,-113 1973,-113 1973,-151.692 1973,-151.692"/>
<polygon fill="#000000" stroke="#000000" points="1969.5001,-151.6919 1973,-161.692 1976.5001,-151.692 1969.5001,-151.6919"/>
</g>
<!-- TotalPipe  -->
<g id="node28" class="node">
<title>TotalPipe </title>
<polygon fill="#fb8072" stroke="#000000" points="1889.9362,-198 1816.0638,-198 1816.0638,-162 1889.9362,-162 1889.9362,-198"/>
<text text-anchor="middle" x="1853" y="-175.8" font-family="Times,serif" font-size="14.00" fill="#000000">TotalPipe </text>
</g>
<!-- SharedModule&#45;&gt;TotalPipe  -->
<g id="edge25" class="edge">
<title>SharedModule&#45;&gt;TotalPipe </title>
<path fill="none" stroke="#000000" stroke-dasharray="5,2" d="M1776.4369,-118C1811.7365,-118 1853,-118 1853,-118 1853,-118 1853,-151.7333 1853,-151.7333"/>
<polygon fill="#000000" stroke="#000000" points="1849.5001,-151.7333 1853,-161.7333 1856.5001,-151.7333 1849.5001,-151.7333"/>
</g>
<!-- PageLoginComponent -->
<g id="node13" class="node">
<title>PageLoginComponent</title>
<polygon fill="#ffffb3" stroke="#000000" points="983.9874,-122 842.0126,-122 842.0126,-86 983.9874,-86 983.9874,-122"/>
<text text-anchor="middle" x="913" y="-99.8" font-family="Times,serif" font-size="14.00" fill="#000000">PageLoginComponent</text>
</g>
<!-- PageLoginComponent&#45;&gt;LoginModule -->
<g id="edge11" class="edge">
<title>PageLoginComponent&#45;&gt;LoginModule</title>
<path fill="none" stroke="#000000" d="M854.3629,-122.1467C854.3629,-135.7395 854.3629,-152 854.3629,-152 854.3629,-152 573.3873,-152 573.3873,-152 573.3873,-152 573.3873,-152.9793 573.3873,-152.9793"/>
<polygon fill="#000000" stroke="#000000" points="569.8874,-151.793 573.3873,-161.793 576.8874,-151.7931 569.8874,-151.793"/>
</g>
<!-- LoginRoutingModule -->
<g id="node14" class="node">
<title>LoginRoutingModule</title>
<polygon fill="#8dd3c7" stroke="#000000" points="818.1108,-122 815.1108,-126 794.1108,-126 791.1108,-122 679.8892,-122 679.8892,-86 818.1108,-86 818.1108,-122"/>
<text text-anchor="middle" x="749" y="-99.8" font-family="Times,serif" font-size="14.00" fill="#000000">LoginRoutingModule</text>
</g>
<!-- LoginRoutingModule&#45;&gt;LoginModule -->
<g id="edge12" class="edge">
<title>LoginRoutingModule&#45;&gt;LoginModule</title>
<path fill="none" stroke="#000000" d="M708.6659,-122.1097C708.6659,-131.897 708.6659,-142 708.6659,-142 708.6659,-142 556.2781,-142 556.2781,-142 556.2781,-142 556.2781,-151.8903 556.2781,-151.8903"/>
<polygon fill="#000000" stroke="#000000" points="552.7781,-151.8903 556.2781,-161.8903 559.7781,-151.8904 552.7781,-151.8903"/>
</g>
<!-- PageNotFoundComponent -->
<g id="node15" class="node">
<title>PageNotFoundComponent</title>
<polygon fill="#ffffb3" stroke="#000000" points="3688.8243,-122 3523.1757,-122 3523.1757,-86 3688.8243,-86 3688.8243,-122"/>
<text text-anchor="middle" x="3606" y="-99.8" font-family="Times,serif" font-size="14.00" fill="#000000">PageNotFoundComponent</text>
</g>
<!-- PageNotFoundModule -->
<g id="node16" class="node">
<title>PageNotFoundModule</title>
<polygon fill="#8dd3c7" stroke="#000000" points="3576.5421,-198 3573.5421,-202 3552.5421,-202 3549.5421,-198 3433.4579,-198 3433.4579,-162 3576.5421,-162 3576.5421,-198"/>
<text text-anchor="middle" x="3505" y="-175.8" font-family="Times,serif" font-size="14.00" fill="#000000">PageNotFoundModule</text>
</g>
<!-- PageNotFoundComponent&#45;&gt;PageNotFoundModule -->
<g id="edge13" class="edge">
<title>PageNotFoundComponent&#45;&gt;PageNotFoundModule</title>
<path fill="none" stroke="#000000" d="M3550.0544,-122.0109C3550.0544,-122.0109 3550.0544,-151.855 3550.0544,-151.855"/>
<polygon fill="#000000" stroke="#000000" points="3546.5544,-151.8549 3550.0544,-161.855 3553.5544,-151.855 3546.5544,-151.8549"/>
</g>
<!-- PageNotFoundRoutingModule -->
<g id="node17" class="node">
<title>PageNotFoundRoutingModule</title>
<polygon fill="#8dd3c7" stroke="#000000" points="3499.1595,-122 3496.1595,-126 3475.1595,-126 3472.1595,-122 3310.8405,-122 3310.8405,-86 3499.1595,-86 3499.1595,-122"/>
<text text-anchor="middle" x="3405" y="-99.8" font-family="Times,serif" font-size="14.00" fill="#000000">PageNotFoundRoutingModule</text>
</g>
<!-- PageNotFoundRoutingModule&#45;&gt;PageNotFoundModule -->
<g id="edge14" class="edge">
<title>PageNotFoundRoutingModule&#45;&gt;PageNotFoundModule</title>
<path fill="none" stroke="#000000" d="M3466.2795,-122.0109C3466.2795,-122.0109 3466.2795,-151.855 3466.2795,-151.855"/>
<polygon fill="#000000" stroke="#000000" points="3462.7795,-151.8549 3466.2795,-161.855 3469.7795,-151.855 3462.7795,-151.8549"/>
</g>
<!-- ItemPrestationComponent -->
<g id="node18" class="node">
<title>ItemPrestationComponent</title>
<polygon fill="#ffffb3" stroke="#000000" points="3271.4776,-122 3108.5224,-122 3108.5224,-86 3271.4776,-86 3271.4776,-122"/>
<text text-anchor="middle" x="3190" y="-99.8" font-family="Times,serif" font-size="14.00" fill="#000000">ItemPrestationComponent</text>
</g>
<!-- ItemPrestationComponent&#45;&gt;PrestationsModule -->
<g id="edge15" class="edge">
<title>ItemPrestationComponent&#45;&gt;PrestationsModule</title>
<path fill="none" stroke="#000000" d="M3190,-122.1985C3190,-146.3563 3190,-186 3190,-186 3190,-186 2893.6026,-186 2893.6026,-186"/>
<polygon fill="#000000" stroke="#000000" points="2893.6026,-182.5001 2883.6026,-186 2893.6026,-189.5001 2893.6026,-182.5001"/>
</g>
<!-- ListPrestationsComponent -->
<g id="node19" class="node">
<title>ListPrestationsComponent</title>
<polygon fill="#ffffb3" stroke="#000000" points="3090.0448,-122 2925.9552,-122 2925.9552,-86 3090.0448,-86 3090.0448,-122"/>
<text text-anchor="middle" x="3008" y="-99.8" font-family="Times,serif" font-size="14.00" fill="#000000">ListPrestationsComponent</text>
</g>
<!-- ListPrestationsComponent&#45;&gt;PrestationsModule -->
<g id="edge16" class="edge">
<title>ListPrestationsComponent&#45;&gt;PrestationsModule</title>
<path fill="none" stroke="#000000" d="M3008,-122.0267C3008,-142.7672 3008,-174 3008,-174 3008,-174 2893.5759,-174 2893.5759,-174"/>
<polygon fill="#000000" stroke="#000000" points="2893.576,-170.5001 2883.5759,-174 2893.5759,-177.5001 2893.576,-170.5001"/>
</g>
<!-- PagePrestationsComponent -->
<g id="node20" class="node">
<title>PagePrestationsComponent</title>
<polygon fill="#ffffb3" stroke="#000000" points="2907.9776,-122 2738.0224,-122 2738.0224,-86 2907.9776,-86 2907.9776,-122"/>
<text text-anchor="middle" x="2823" y="-99.8" font-family="Times,serif" font-size="14.00" fill="#000000">PagePrestationsComponent</text>
</g>
<!-- PagePrestationsComponent&#45;&gt;PrestationsModule -->
<g id="edge17" class="edge">
<title>PagePrestationsComponent&#45;&gt;PrestationsModule</title>
<path fill="none" stroke="#000000" d="M2823,-122.0109C2823,-122.0109 2823,-151.855 2823,-151.855"/>
<polygon fill="#000000" stroke="#000000" points="2819.5001,-151.8549 2823,-161.855 2826.5001,-151.855 2819.5001,-151.8549"/>
</g>
<!-- PrestationsRoutingModule -->
<g id="node22" class="node">
<title>PrestationsRoutingModule</title>
<polygon fill="#8dd3c7" stroke="#000000" points="2714.101,-122 2711.101,-126 2690.101,-126 2687.101,-122 2547.899,-122 2547.899,-86 2714.101,-86 2714.101,-122"/>
<text text-anchor="middle" x="2631" y="-99.8" font-family="Times,serif" font-size="14.00" fill="#000000">PrestationsRoutingModule</text>
</g>
<!-- PrestationsRoutingModule&#45;&gt;PrestationsModule -->
<g id="edge18" class="edge">
<title>PrestationsRoutingModule&#45;&gt;PrestationsModule</title>
<path fill="none" stroke="#000000" d="M2631,-122.0267C2631,-142.7672 2631,-174 2631,-174 2631,-174 2752.5135,-174 2752.5135,-174"/>
<polygon fill="#000000" stroke="#000000" points="2752.5136,-177.5001 2762.5135,-174 2752.5135,-170.5001 2752.5136,-177.5001"/>
</g>
<!-- StateDirective -->
<g id="node23" class="node">
<title>StateDirective</title>
<polygon fill="#ffffb3" stroke="#000000" points="2508.0758,-198 2411.9242,-198 2411.9242,-162 2508.0758,-162 2508.0758,-198"/>
<text text-anchor="middle" x="2460" y="-175.8" font-family="Times,serif" font-size="14.00" fill="#000000">StateDirective</text>
</g>
<!-- StateDirective&#45;&gt;SharedModule -->
<g id="edge20" class="edge">
<title>StateDirective&#45;&gt;SharedModule</title>
<path fill="none" stroke="#000000" d="M2460,-161.9737C2460,-137.0227 2460,-95 2460,-95 2460,-95 1786.2324,-95 1786.2324,-95"/>
<polygon fill="#000000" stroke="#000000" points="1786.2324,-91.5001 1776.2324,-95 1786.2323,-98.5001 1786.2324,-91.5001"/>
</g>
<!-- TableauComponent -->
<g id="node24" class="node">
<title>TableauComponent</title>
<polygon fill="#ffffb3" stroke="#000000" points="2394.4201,-198 2267.5799,-198 2267.5799,-162 2394.4201,-162 2394.4201,-198"/>
<text text-anchor="middle" x="2331" y="-175.8" font-family="Times,serif" font-size="14.00" fill="#000000">TableauComponent</text>
</g>
<!-- TableauComponent&#45;&gt;SharedModule -->
<g id="edge21" class="edge">
<title>TableauComponent&#45;&gt;SharedModule</title>
<path fill="none" stroke="#000000" d="M2331,-161.8468C2331,-138.2434 2331,-100 2331,-100 2331,-100 1786.4279,-100 1786.4279,-100"/>
<polygon fill="#000000" stroke="#000000" points="1786.4279,-96.5001 1776.4279,-100 1786.4278,-103.5001 1786.4279,-96.5001"/>
</g>
<!-- TotalPipe -->
<g id="node25" class="node">
<title>TotalPipe</title>
<polygon fill="#ffffb3" stroke="#000000" points="2250.4376,-198 2179.5624,-198 2179.5624,-162 2250.4376,-162 2250.4376,-198"/>
<text text-anchor="middle" x="2215" y="-175.8" font-family="Times,serif" font-size="14.00" fill="#000000">TotalPipe</text>
</g>
<!-- TotalPipe&#45;&gt;SharedModule -->
<g id="edge22" class="edge">
<title>TotalPipe&#45;&gt;SharedModule</title>
<path fill="none" stroke="#000000" d="M2215,-161.9891C2215,-139.5148 2215,-104 2215,-104 2215,-104 1786.4776,-104 1786.4776,-104"/>
<polygon fill="#000000" stroke="#000000" points="1786.4776,-100.5001 1776.4776,-104 1786.4776,-107.5001 1786.4776,-100.5001"/>
</g>
<!-- FooterComponent -->
<g id="node29" class="node">
<title>FooterComponent</title>
<polygon fill="#ffffb3" stroke="#000000" points="639.8809,-122 522.1191,-122 522.1191,-86 639.8809,-86 639.8809,-122"/>
<text text-anchor="middle" x="581" y="-99.8" font-family="Times,serif" font-size="14.00" fill="#000000">FooterComponent</text>
</g>
<!-- FooterComponent&#45;&gt;UiModule -->
<g id="edge26" class="edge">
<title>FooterComponent&#45;&gt;UiModule</title>
<path fill="none" stroke="#000000" d="M539.1688,-122.207C539.1688,-127.5549 539.1688,-132 539.1688,-132 539.1688,-132 455.2578,-132 455.2578,-132 455.2578,-132 455.2578,-151.8533 455.2578,-151.8533"/>
<polygon fill="#000000" stroke="#000000" points="451.7579,-151.8532 455.2578,-161.8533 458.7579,-151.8533 451.7579,-151.8532"/>
</g>
<!-- HeaderComponent -->
<g id="node30" class="node">
<title>HeaderComponent</title>
<polygon fill="#ffffb3" stroke="#000000" points="503.7437,-122 382.2563,-122 382.2563,-86 503.7437,-86 503.7437,-122"/>
<text text-anchor="middle" x="443" y="-99.8" font-family="Times,serif" font-size="14.00" fill="#000000">HeaderComponent</text>
</g>
<!-- HeaderComponent&#45;&gt;UiModule -->
<g id="edge27" class="edge">
<title>HeaderComponent&#45;&gt;UiModule</title>
<path fill="none" stroke="#000000" d="M430.7422,-122.0109C430.7422,-122.0109 430.7422,-151.855 430.7422,-151.855"/>
<polygon fill="#000000" stroke="#000000" points="427.2423,-151.8549 430.7422,-161.855 434.2423,-151.855 427.2423,-151.8549"/>
</g>
<!-- NavComponent -->
<g id="node31" class="node">
<title>NavComponent</title>
<polygon fill="#ffffb3" stroke="#000000" points="364.1542,-122 259.8458,-122 259.8458,-86 364.1542,-86 364.1542,-122"/>
<text text-anchor="middle" x="312" y="-99.8" font-family="Times,serif" font-size="14.00" fill="#000000">NavComponent</text>
</g>
<!-- NavComponent&#45;&gt;UiModule -->
<g id="edge28" class="edge">
<title>NavComponent&#45;&gt;UiModule</title>
<path fill="none" stroke="#000000" d="M312,-122.308C312,-142.1455 312,-171 312,-171 312,-171 396.1606,-171 396.1606,-171"/>
<polygon fill="#000000" stroke="#000000" points="396.1606,-174.5001 406.1606,-171 396.1605,-167.5001 396.1606,-174.5001"/>
</g>
<!-- UiComponent -->
<g id="node32" class="node">
<title>UiComponent</title>
<polygon fill="#ffffb3" stroke="#000000" points="241.8302,-122 146.1698,-122 146.1698,-86 241.8302,-86 241.8302,-122"/>
<text text-anchor="middle" x="194" y="-99.8" font-family="Times,serif" font-size="14.00" fill="#000000">UiComponent</text>
</g>
<!-- UiComponent&#45;&gt;UiModule -->
<g id="edge29" class="edge">
<title>UiComponent&#45;&gt;UiModule</title>
<path fill="none" stroke="#000000" d="M194,-122.0109C194,-144.4852 194,-180 194,-180 194,-180 396.2592,-180 396.2592,-180"/>
<polygon fill="#000000" stroke="#000000" points="396.2592,-183.5001 406.2592,-180 396.2592,-176.5001 396.2592,-183.5001"/>
</g>
</g>
</svg>
